<svg width="800" height="800" viewBox="0 0 800 800" fill="none" xmlns="http://www.w3.org/2000/svg">
<path fill-rule="evenodd" clip-rule="evenodd" d="M366.667 166.667C256.21 166.667 166.667 256.21 166.667 366.667C166.667 477.123 256.21 566.667 366.667 566.667C477.123 566.667 566.667 477.123 566.667 366.667C566.667 256.21 477.123 166.667 366.667 166.667ZM100 366.667C100 219.391 219.391 100 366.667 100C513.943 100 633.333 219.391 633.333 366.667C633.333 428.29 612.43 485.033 577.33 530.187L690.237 643.097C703.253 656.113 703.253 677.22 690.237 690.237C677.22 703.253 656.113 703.253 643.097 690.237L530.187 577.33C485.033 612.43 428.29 633.333 366.667 633.333C219.391 633.333 100 513.943 100 366.667Z" fill="white"/>
</svg>
